<svg xmlns="http://www.w3.org/2000/svg" viewBox="0 0 1024 1024" role="img" aria-label="Pond Warfare app icon">
  <defs>
    <linearGradient id="bg" x1="0%" y1="0%" x2="100%" y2="100%">
      <stop offset="0%" stop-color="#173028"/>
      <stop offset="58%" stop-color="#203A2F"/>
      <stop offset="100%" stop-color="#21160C"/>
    </linearGradient>
    <radialGradient id="mist" cx="35%" cy="28%" r="72%">
      <stop offset="0%" stop-color="#4B7A68" stop-opacity="0.48"/>
      <stop offset="100%" stop-color="#4B7A68" stop-opacity="0"/>
    </radialGradient>
    <linearGradient id="ring" x1="0%" y1="0%" x2="100%" y2="100%">
      <stop offset="0%" stop-color="#E5C88A"/>
      <stop offset="52%" stop-color="#C5A059"/>
      <stop offset="100%" stop-color="#8A6D3B"/>
    </linearGradient>
    <linearGradient id="wood" x1="0%" y1="0%" x2="0%" y2="100%">
      <stop offset="0%" stop-color="#725137"/>
      <stop offset="100%" stop-color="#3B2616"/>
    </linearGradient>
    <linearGradient id="fur" x1="0%" y1="0%" x2="0%" y2="100%">
      <stop offset="0%" stop-color="#A57B4C"/>
      <stop offset="100%" stop-color="#6A4A2B"/>
    </linearGradient>
    <linearGradient id="muzzle" x1="0%" y1="0%" x2="0%" y2="100%">
      <stop offset="0%" stop-color="#F0E4CF"/>
      <stop offset="100%" stop-color="#DCC9A9"/>
    </linearGradient>
    <linearGradient id="water" x1="0%" y1="0%" x2="100%" y2="0%">
      <stop offset="0%" stop-color="#4FC8A9"/>
      <stop offset="100%" stop-color="#8EE0D0"/>
    </linearGradient>
    <filter id="shadow" x="-20%" y="-20%" width="140%" height="140%">
      <feDropShadow dx="0" dy="18" stdDeviation="18" flood-color="#08100D" flood-opacity="0.45"/>
    </filter>
  </defs>

  <rect x="64" y="64" width="896" height="896" rx="224" fill="url(#bg)"/>
  <rect x="64" y="64" width="896" height="896" rx="224" fill="url(#mist)"/>

  <g opacity="0.85" stroke-linecap="round" filter="url(#shadow)">
    <path d="M238 808C286 650 325 476 360 270" stroke="#405E2D" stroke-width="34" fill="none"/>
    <ellipse cx="376" cy="236" rx="20" ry="66" fill="#7AA437"/>
    <path d="M786 808C738 650 699 476 664 270" stroke="#405E2D" stroke-width="34" fill="none"/>
    <ellipse cx="648" cy="236" rx="20" ry="66" fill="#7AA437"/>
  </g>

  <circle cx="512" cy="512" r="336" fill="#13201A" opacity="0.94"/>
  <circle cx="512" cy="512" r="336" fill="none" stroke="url(#ring)" stroke-width="28"/>

  <path
    d="M512 232
       C624 232 702 296 702 404
       L702 598
       C702 734 620 820 512 870
       C404 820 322 734 322 598
       L322 404
       C322 296 400 232 512 232Z"
    fill="url(#wood)"
    stroke="#C5A059"
    stroke-width="22"
    filter="url(#shadow)"
  />

  <g>
    <circle cx="408" cy="362" r="56" fill="url(#fur)"/>
    <circle cx="616" cy="362" r="56" fill="url(#fur)"/>
    <path
      d="M370 574
         C370 430 438 328 512 328
         C586 328 654 430 654 574
         C654 646 602 706 512 706
         C422 706 370 646 370 574Z"
      fill="url(#fur)"
    />
    <path
      d="M422 540
         C422 468 462 418 512 418
         C562 418 602 468 602 540
         C602 602 564 642 512 642
         C460 642 422 602 422 540Z"
      fill="url(#muzzle)"
    />
    <ellipse cx="470" cy="510" rx="18" ry="22" fill="#10110F"/>
    <ellipse cx="554" cy="510" rx="18" ry="22" fill="#10110F"/>
    <path
      d="M476 580
         C492 548 532 548 548 580
         C534 598 522 608 512 608
         C502 608 490 598 476 580Z"
      fill="#1C120C"
    />
    <path d="M470 628C494 648 530 648 554 628" fill="none" stroke="#6A3F2C" stroke-width="14" stroke-linecap="round"/>
    <path d="M430 552C418 568 400 576 378 576" fill="none" stroke="#DCC9A9" stroke-width="10" stroke-linecap="round" opacity="0.75"/>
    <path d="M594 552C606 568 624 576 646 576" fill="none" stroke="#DCC9A9" stroke-width="10" stroke-linecap="round" opacity="0.75"/>
  </g>

  <g fill="none" stroke="url(#water)" stroke-width="22" stroke-linecap="round">
    <path d="M386 708C446 676 578 676 638 708"/>
    <path d="M354 754C436 724 588 724 670 754"/>
  </g>
</svg>
